<svg width="13" height="13" viewBox="0 0 13 13" fill="none" xmlns="http://www.w3.org/2000/svg">
<path opacity="0.5" d="M6.37542 7.81101L4.43548 9.75095C4.2219 9.56111 4.01426 9.36534 3.81256 9.16363C3.20151 8.54665 2.64978 7.9 2.15738 7.22369C1.67091 6.54738 1.27936 5.87107 0.994602 5.2007C0.70984 4.52439 0.567459 3.87774 0.567459 3.26076C0.567459 2.85734 0.63865 2.47173 0.78103 2.11578C0.923411 1.75389 1.14885 1.42167 1.46327 1.12504C1.84296 0.751292 2.25823 0.567383 2.69724 0.567383C2.86335 0.567383 3.02946 0.602978 3.17778 0.674169C3.33202 0.745359 3.46847 0.852145 3.57526 1.00639L4.95161 2.94633C5.05839 3.09464 5.13551 3.23109 5.18891 3.36161C5.2423 3.48619 5.27196 3.61078 5.27196 3.72349C5.27196 3.86587 5.23044 4.00826 5.14738 4.1447C5.07026 4.28115 4.95754 4.42353 4.81516 4.56591L4.36428 5.03459C4.29903 5.09984 4.26936 5.17697 4.26936 5.27189C4.26936 5.31935 4.2753 5.36087 4.28716 5.40834C4.30496 5.4558 4.32276 5.49139 4.33462 5.52699C4.44141 5.72276 4.62532 5.97786 4.88635 6.28635C5.15331 6.59484 5.43807 6.90927 5.74657 7.22369C5.96014 7.43133 6.16778 7.63304 6.37542 7.81101Z" fill="white"/>
<path d="M12.4147 10.2553C12.4147 10.4214 12.3851 10.5934 12.3258 10.7595C12.308 10.807 12.2902 10.8545 12.2664 10.9019C12.1656 11.1155 12.0351 11.3172 11.863 11.507C11.5723 11.8274 11.252 12.0588 10.8901 12.2071C10.8841 12.2071 10.8782 12.213 10.8723 12.213C10.5223 12.3554 10.1426 12.4325 9.73323 12.4325C9.12811 12.4325 8.48146 12.2901 7.79922 11.9994C7.11698 11.7087 6.43474 11.3172 5.75843 10.8248C5.52706 10.6527 5.29569 10.4807 5.07619 10.2968L7.01613 8.35685C7.18224 8.48144 7.33055 8.57636 7.45514 8.64161C7.4848 8.65348 7.52039 8.67128 7.56192 8.68907C7.60938 8.70687 7.65684 8.7128 7.71023 8.7128C7.81109 8.7128 7.88821 8.67721 7.95347 8.61195L8.40434 8.16701C8.55266 8.0187 8.69504 7.90598 8.83148 7.83479C8.96793 7.75173 9.10438 7.71021 9.25269 7.71021C9.36541 7.71021 9.48406 7.73394 9.61458 7.78733C9.7451 7.84072 9.88154 7.91784 10.0299 8.0187L11.9935 9.41284C12.1478 9.51963 12.2546 9.64421 12.3198 9.79253C12.3791 9.94084 12.4147 10.0892 12.4147 10.2553Z" fill="white"/>
</svg>
