<svg width="115" height="121" viewBox="0 0 115 121" fill="none" xmlns="http://www.w3.org/2000/svg">
<g filter="url(#filter0_i_4_533)">
<path fill-rule="evenodd" clip-rule="evenodd" d="M84.5671 66.6619C83.08 66.0918 75.7949 63.3567 74.4546 63.0082C73.1147 62.6643 72.1503 62.5241 71.3455 64.0393C70.5444 65.5446 68.1569 69.0088 67.4283 70.0349C66.6954 71.0662 65.8844 71.2623 64.4025 70.6965C62.9196 70.1213 58.2174 69.0805 52.3429 64.7893C47.7723 61.4475 44.4736 57.0884 43.5101 55.7487C42.5471 54.4137 43.2029 53.5731 43.8411 52.7969C44.4151 52.0993 45.0886 51.0016 45.7149 50.1062C46.3408 49.2059 46.515 48.5914 46.8914 47.5955C47.273 46.6039 46.9534 45.8023 46.5263 45.127C46.104 44.4513 42.5875 37.7536 41.1269 35.0327C39.7071 32.3848 38.5799 32.8772 37.71 32.9154C36.879 32.9594 35.9369 33.0433 34.9957 33.1368C34.0545 33.2302 32.5588 33.7351 31.407 35.2849C30.2499 36.8303 26.9444 40.6217 27.6372 47.5997C28.3295 54.573 34.0565 60.8103 34.859 61.6892C35.661 62.5633 46.3332 75.9634 61.1132 80.695C64.6331 81.8194 67.3485 82.4313 69.4617 82.8766C72.9538 83.6232 76.019 83.1648 78.4164 82.5559C81.0857 81.8814 86.4327 78.2968 87.283 74.8696C88.1285 71.4429 87.8467 68.6049 87.4362 68.0484C87.0257 67.4919 86.0495 67.2324 84.5623 66.6623L84.5671 66.6619ZM62.2987 104.531L62.2797 104.533C53.8633 105.37 45.3758 103.92 37.707 100.335L35.8944 99.4841L18.5714 105.934L21.5927 88.0627L20.2985 86.3898C14.847 79.3416 11.4932 70.891 10.6249 62.0144C8.05356 36.0188 27.0313 12.7774 52.9528 10.2038C65.5023 8.95786 77.7885 12.6992 87.5433 20.7283C92.3525 24.6657 96.3364 29.5203 99.2645 35.0112C102.193 40.5021 104.007 46.5203 104.602 52.7177C107.174 78.7133 88.1964 101.959 62.2987 104.531ZM93.6215 13.2899C87.8587 8.52002 81.2105 4.94436 74.0621 2.77016C66.9136 0.595966 59.4072 -0.133535 51.9776 0.623934C20.8225 3.71716 -2.01638 31.6817 1.07921 62.9574C2.06702 72.9551 5.63614 82.4556 11.4385 90.564L6.33764 120.756L35.5211 109.891C44.2608 113.6 53.7861 115.052 63.2263 114.115L63.2501 114.113C94.4053 111.02 117.244 83.0552 114.148 51.7747C113.431 44.3188 111.248 37.0785 107.724 30.4727C104.201 23.8669 99.4076 18.0267 93.6215 13.2899Z" fill="white"/>
</g>
<defs>
<filter id="filter0_i_4_533" x="0.798222" y="0.333832" width="113.631" height="124.422" filterUnits="userSpaceOnUse" color-interpolation-filters="sRGB">
<feFlood flood-opacity="0" result="BackgroundImageFix"/>
<feBlend mode="normal" in="SourceGraphic" in2="BackgroundImageFix" result="shape"/>
<feColorMatrix in="SourceAlpha" type="matrix" values="0 0 0 0 0 0 0 0 0 0 0 0 0 0 0 0 0 0 127 0" result="hardAlpha"/>
<feOffset dy="4"/>
<feGaussianBlur stdDeviation="2"/>
<feComposite in2="hardAlpha" operator="arithmetic" k2="-1" k3="1"/>
<feColorMatrix type="matrix" values="0 0 0 0 0 0 0 0 0 0 0 0 0 0 0 0 0 0 0.08 0"/>
<feBlend mode="normal" in2="shape" result="effect1_innerShadow_4_533"/>
</filter>
</defs>
</svg>
